# xmcd
#
# Track frame offsets: 
#        150
#        13390
#        25477
#        47906
#        65542
#        84881
#        97174
#        112120
#        125326
#        141119
#        155334
#        168838
#        179514
#
# Disc length: 2724 seconds
#
# Revision: 0
# Processed by: cddbd v1.5.2PL0 Copyright (c) Steve Scherf et al.
# Submitted via: ExactAudioCopy v0.99pb5
#
DISCID=b30aa20d
DTITLE=Mighty Mojo Prophets - Mighty Mojo Prophets
DYEAR=2012
DGENRE=Blues
TTITLE0=Evil Sometimes
TTITLE1=Friday Night Phone Call
TTITLE2=Night Train
TTITLE3=Life's A Hurt'n Thing
TTITLE4=Smile On My Face
TTITLE5=Da Switch
TTITLE6=West Coast Blues
TTITLE7=Hoodoo Lover
TTITLE8=My Baby
TTITLE9=Love Me Like You Should
TTITLE10=Carmen G
TTITLE11=Boogie Woogie Rhythm
TTITLE12=Travelin' Man
EXTD=
EXTT0=
EXTT1=
EXTT2=
EXTT3=
EXTT4=
EXTT5=
EXTT6=
EXTT7=
EXTT8=
EXTT9=
EXTT10=
EXTT11=
EXTT12=
PLAYORDER=
